<?xml version="1.0" encoding="UTF-8"?>
<!DOCTYPE svg PUBLIC "-//W3C//DTD SVG 1.1//EN" "http://www.w3.org/Graphics/SVG/1.1/DTD/svg11.dtd">
<!-- Creator: CorelDRAW -->
<svg xmlns="http://www.w3.org/2000/svg" xml:space="preserve" width="21cm" height="29.7cm" style="shape-rendering:geometricPrecision; text-rendering:geometricPrecision; image-rendering:optimizeQuality; fill-rule:evenodd; clip-rule:evenodd"
viewBox="0 0 21 29.7"
 xmlns:xlink="http://www.w3.org/1999/xlink">
 <defs>
  <style type="text/css">
   <![CDATA[
    .str0 {stroke:#1F1A17;stroke-width:0.00762}
    .str1 {stroke:white;stroke-width:0.00762}
    .str2 {stroke:#2D1E5C;stroke-width:0.00762}
    .fil4 {fill:#0093DD}
    .fil0 {fill:black}
    .fil5 {fill:#1B4F71}
    .fil6 {fill:#504E88}
    .fil3 {fill:#95C22B}
    .fil1 {fill:white;fill-rule:nonzero}
    .fil2 {fill:#4F4E89;fill-rule:nonzero}
    .fil7 {fill:url(#id0)}
   ]]>
  </style>
  <linearGradient id="id0" gradientUnits="userSpaceOnUse" x1="10.8776" y1="7.03793" x2="9.71876" y2="7.03793">
   <stop offset="0" style="stop-color:#94C22D"/>
   <stop offset="0.65098" style="stop-color:#72885A"/>
   <stop offset="1" style="stop-color:#504E88"/>
  </linearGradient>
 </defs>
 <g id="Camada_x0020_1">
  <metadata id="CorelCorpID_0Corel-Layer"/>
  <path class="fil0 str0" d="M5.53057 6.82872l9.60275 0 0.33381 -1.62794c0.01997,-0.09743 -0.08139,-0.18083 -0.18083,-0.18083l-9.39863 0 -0.3571 1.80877z"/>
  <g id="_291861152">
   <path id="_292247024" class="fil1 str1" d="M14.2607 6.37525c0.05292,0 0.08417,-0.02865 0.09377,-0.08595l0.01543 -0.07734 -0.5494 0c-0.02491,0 -0.04397,0.00659 -0.0572,0.01976 -0.01322,0.01318 -0.02264,0.03237 -0.02828,0.05758l-0.00216 0.01031c-0.00138,0.00573 -0.0023,0.01261 -0.00277,0.02063 -0.00114,0.01948 0.00269,0.03352 0.01153,0.04211 0.00883,0.0086 0.02415,0.0129 0.04594,0.0129l0.47314 0zm-0.72926 -0.0911c0.01612,-0.08022 0.04382,-0.14095 0.08307,-0.1822 0.03927,-0.04126 0.10196,-0.06189 0.18808,-0.06189l0.60388 0 0.00885 -0.04469c0.00138,-0.00573 0.0024,-0.01432 0.00307,-0.02578 0.00175,-0.0298 -0.00468,-0.05271 -0.0193,-0.06876 -0.01463,-0.01604 -0.03698,-0.02406 -0.06707,-0.02406l-0.63812 0c-0.03217,0 -0.04415,-0.01662 -0.03598,-0.04985l0.01976 -0.09798c0.00611,-0.03323 0.0242,-0.04984 0.0543,-0.04984l0.70504 0c0.06537,0 0.11531,0.01977 0.14983,0.0593 0.03451,0.03953 0.04981,0.09254 0.0459,0.159 -0.00047,0.00802 -0.00096,0.01633 -0.00147,0.02492 -0.0005,0.00859 -0.00206,0.01747 -0.00467,0.02664l-0.07474 0.37128c-0.00858,0.04011 -0.01977,0.07592 -0.03356,0.10743 -0.01378,0.03152 -0.03168,0.05816 -0.05372,0.07993 -0.02203,0.02177 -0.04868,0.0381 -0.07991,0.04899 -0.03126,0.01088 -0.06868,0.01633 -0.11225,0.01633l-0.57742 0c-0.12762,0 -0.18776,-0.06245 -0.18042,-0.18735 0.00101,-0.0172 0.00367,-0.03611 0.008,-0.05673l0.00885 -0.04469z"/>
   <path id="_154989840" class="fil1 str1" d="M13.292 6.57292c-0.12763,0 -0.18777,-0.06245 -0.18043,-0.18735 0.00101,-0.0172 0.00368,-0.03611 0.008,-0.05673l0.19892 -0.97461c0.00506,-0.03324 0.02264,-0.04985 0.05273,-0.04985l0.11362 0c0.02905,0 0.04104,0.01661 0.03597,0.04985l-0.19096 0.94538c-0.00138,0.00573 -0.00233,0.01319 -0.00287,0.02235 -0.00209,0.03553 0.01606,0.05329 0.05445,0.05329l0.01556 0c0.02906,0 0.04053,0.01662 0.03443,0.04984l-0.01977 0.09798c-0.0061,0.03324 -0.02419,0.04985 -0.05429,0.04985l-0.06536 0z"/>
   <path id="_292248824" class="fil1 str1" d="M12.8724 5.95412c0.00274,-0.01146 0.00428,-0.02005 0.00462,-0.02578 0.00202,-0.03438 -0.0172,-0.05157 -0.05767,-0.05157l-0.44357 0c-0.03321,0 -0.06158,0.0106 -0.08514,0.0318 -0.02355,0.0212 -0.039,0.05013 -0.04635,0.0868l-0.00884 0.04469 0.5494 0c0.02594,0 0.04526,-0.00658 0.05798,-0.01976 0.0127,-0.01318 0.02186,-0.03237 0.0275,-0.05758l0.00207 -0.0086zm-0.67196 0.25784l-0.00885 0.04469c-0.00137,0.00573 -0.00216,0.01031 -0.00237,0.01374 -0.00019,0.00344 -0.00043,0.00745 -0.0007,0.01204 -0.00175,0.02979 0.00468,0.05271 0.0193,0.06876 0.01462,0.01604 0.03698,0.02406 0.06707,0.02406l0.64124 0c0.02904,0 0.04051,0.01662 0.03442,0.04984l-0.01977 0.09798c-0.00818,0.03324 -0.02627,0.04985 -0.05429,0.04985l-0.70661 0c-0.06536,0 -0.11583,-0.01976 -0.15137,-0.0593 -0.03555,-0.03953 -0.05137,-0.09253 -0.04746,-0.159 0.00087,-0.0149 0.00344,-0.03208 0.0077,-0.05157l0.07217 -0.35409c0.00858,-0.0401 0.02059,-0.07677 0.03604,-0.11001 0.01544,-0.03323 0.03552,-0.06159 0.06025,-0.08508 0.02472,-0.02349 0.05382,-0.04183 0.08728,-0.055 0.03346,-0.01318 0.07198,-0.01977 0.11556,-0.01977l0.5603 0c0.12762,0 0.18776,0.06245 0.18042,0.18736 -0.00101,0.01719 -0.00368,0.03609 -0.008,0.05672l-0.00886 0.04469c-0.00754,0.04011 -0.01792,0.07534 -0.03111,0.10572 -0.0132,0.03036 -0.03026,0.05586 -0.05119,0.07648 -0.02092,0.02063 -0.04673,0.0361 -0.07743,0.04642 -0.0307,0.01031 -0.06784,0.01547 -0.11142,0.01547l-0.60232 0z"/>
   <path id="_291869480" class="fil1 str1" d="M11.0166 6.25665c-0.00137,0.00573 -0.0024,0.01432 -0.00307,0.02578 -0.00175,0.02979 0.00468,0.05271 0.01931,0.06876 0.01461,0.01604 0.03697,0.02406 0.06706,0.02406l0.41867 0c0.0332,0 0.06158,-0.0106 0.08513,-0.0318 0.02356,-0.0212 0.039,-0.05014 0.04636,-0.0868l0.0527 -0.26128c0.00137,-0.00573 0.0024,-0.01432 0.00307,-0.02578 0.00175,-0.0298 -0.00468,-0.05271 -0.0193,-0.06876 -0.01462,-0.01604 -0.03698,-0.02406 -0.06707,-0.02406l-0.41867 0c-0.03321,0 -0.06158,0.0106 -0.08513,0.0318 -0.02356,0.0212 -0.03901,0.05013 -0.04635,0.0868l-0.05271 0.26128zm-0.02011 -0.90242c0.00506,-0.03324 0.02264,-0.04985 0.05273,-0.04985l0.11361 0c0.02906,0 0.04105,0.01661 0.03598,0.04985l-0.08544 0.42112c0.02561,-0.02979 0.05604,-0.05328 0.0913,-0.07047 0.03525,-0.01719 0.07622,-0.02578 0.12291,-0.02578l0.39688 0c0.06536,0 0.11531,0.01977 0.14982,0.0593 0.03451,0.03953 0.04982,0.09254 0.04591,0.159 -0.00047,0.00802 -0.00096,0.01633 -0.00147,0.02492 -0.0005,0.00859 -0.00206,0.01747 -0.00467,0.02664l-0.07063 0.35409c-0.01723,0.08136 -0.0496,0.14668 -0.09711,0.19596 -0.04751,0.04927 -0.11485,0.07391 -0.202,0.07391l-0.54941 0c-0.06537,0 -0.11585,-0.01948 -0.15143,-0.05844 -0.03558,-0.03896 -0.05142,-0.09168 -0.04751,-0.15814 0.00094,-0.01605 0.00354,-0.0338 0.0078,-0.05329l0.19273 -0.94882z"/>
   <path id="_291861584" class="fil1 str1" d="M10.3654 6.37525c0.05293,0 0.08418,-0.02865 0.09377,-0.08595l0.01543 -0.07734 -0.5494 0c-0.02491,0 -0.04396,0.00659 -0.05719,0.01976 -0.01323,0.01318 -0.02265,0.03237 -0.02828,0.05758l-0.00217 0.01031c-0.00138,0.00573 -0.00229,0.01261 -0.00277,0.02063 -0.00114,0.01948 0.0027,0.03352 0.01154,0.04211 0.00882,0.0086 0.02414,0.0129 0.04593,0.0129l0.47314 0zm-0.72926 -0.0911c0.01613,-0.08022 0.04382,-0.14095 0.08308,-0.1822 0.03926,-0.04126 0.10195,-0.06189 0.18807,-0.06189l0.60388 0 0.00885 -0.04469c0.00138,-0.00573 0.0024,-0.01432 0.00307,-0.02578 0.00176,-0.0298 -0.00468,-0.05271 -0.0193,-0.06876 -0.01462,-0.01604 -0.03698,-0.02406 -0.06706,-0.02406l-0.63813 0c-0.03217,0 -0.04415,-0.01662 -0.03598,-0.04985l0.01977 -0.09798c0.0061,-0.03323 0.0242,-0.04984 0.05429,-0.04984l0.70504 0c0.06537,0 0.11531,0.01977 0.14983,0.0593 0.03451,0.03953 0.04981,0.09254 0.0459,0.159 -0.00047,0.00802 -0.00096,0.01633 -0.00147,0.02492 -0.0005,0.00859 -0.00206,0.01747 -0.00466,0.02664l-0.07475 0.37128c-0.00858,0.04011 -0.01977,0.07592 -0.03355,0.10743 -0.01379,0.03152 -0.03169,0.05816 -0.05373,0.07993 -0.02203,0.02177 -0.04868,0.0381 -0.07991,0.04899 -0.03126,0.01088 -0.06867,0.01633 -0.11225,0.01633l-0.57742 0c-0.12762,0 -0.18776,-0.06245 -0.18042,-0.18735 0.00101,-0.0172 0.00367,-0.03611 0.008,-0.05673l0.00885 -0.04469z"/>
   <path id="_291860888" class="fil1 str1" d="M9.22246 6.5162c-0.00741,0.03781 -0.02771,0.05672 -0.06092,0.05672l-0.12295 0c-0.03424,0 -0.04766,-0.01891 -0.04025,-0.05672l0.18684 -0.9282 -0.51671 0c-0.03321,0 -0.04614,-0.01834 -0.03879,-0.05501l0.02182 -0.10657c0.00638,-0.03781 0.02668,-0.05672 0.06092,-0.05672l1.25912 0c0.0332,0 0.04662,0.01891 0.04025,0.05672l-0.02338 0.10657c-0.00734,0.03667 -0.02762,0.05501 -0.06082,0.05501l-0.51672 0 -0.18841 0.9282z"/>
  </g>
  <g id="_154989744">
   <path id="_291861800" class="fil2 str2" d="M8.08688 6.37525c0.05292,0 0.08417,-0.02865 0.09376,-0.08595l0.01544 -0.07734 -0.5494 0c-0.02491,0 -0.04397,0.00659 -0.0572,0.01976 -0.01322,0.01318 -0.02264,0.03237 -0.02827,0.05758l-0.00217 0.01031c-0.00138,0.00573 -0.0023,0.01261 -0.00277,0.02063 -0.00115,0.01948 0.0027,0.03352 0.01153,0.04211 0.00883,0.0086 0.02415,0.0129 0.04594,0.0129l0.47314 0zm-0.72926 -0.0911c0.01612,-0.08022 0.04381,-0.14095 0.08307,-0.1822 0.03927,-0.04126 0.10196,-0.06189 0.18808,-0.06189l0.60388 0 0.00885 -0.04469c0.00138,-0.00573 0.0024,-0.01432 0.00307,-0.02578 0.00175,-0.0298 -0.00468,-0.05271 -0.0193,-0.06876 -0.01463,-0.01604 -0.03698,-0.02406 -0.06707,-0.02406l-0.63812 0c-0.03217,0 -0.04415,-0.01662 -0.03598,-0.04985l0.01976 -0.09798c0.00611,-0.03323 0.0242,-0.04984 0.05429,-0.04984l0.70505 0c0.06537,0 0.11531,0.01977 0.14982,0.0593 0.03452,0.03953 0.04982,0.09254 0.04591,0.159 -0.00047,0.00802 -0.00096,0.01633 -0.00147,0.02492 -0.0005,0.00859 -0.00206,0.01747 -0.00467,0.02664l-0.07475 0.37128c-0.00857,0.04011 -0.01976,0.07592 -0.03355,0.10743 -0.01378,0.03152 -0.03168,0.05816 -0.05372,0.07993 -0.02203,0.02177 -0.04868,0.0381 -0.07991,0.04899 -0.03126,0.01088 -0.06867,0.01633 -0.11225,0.01633l-0.57742 0c-0.12762,0 -0.18776,-0.06245 -0.18043,-0.18735 0.00101,-0.0172 0.00368,-0.03611 0.00801,-0.05673l0.00885 -0.04469z"/>
   <path id="_291869384" class="fil2" d="M7.19113 6.52307c-0.0061,0.03324 -0.0242,0.04985 -0.05429,0.04985l-0.11362 0c-0.03009,0 -0.04208,-0.01661 -0.03598,-0.04985l0.10883 -0.5277c0.00138,-0.00573 0.00233,-0.01317 0.00287,-0.02234 0.00175,-0.0298 -0.0049,-0.05329 -0.01998,-0.07048 -0.01507,-0.01719 -0.03714,-0.02578 -0.06619,-0.02578l-0.39531 0c-0.03322,0 -0.06159,0.0106 -0.08514,0.0318 -0.02356,0.0212 -0.03901,0.05013 -0.04635,0.0868l-0.10728 0.5277c-0.0061,0.03324 -0.02419,0.04985 -0.05429,0.04985l-0.11361 0c-0.03009,0 -0.04209,-0.01661 -0.03598,-0.04985l0.11623 -0.57411c0.01612,-0.08021 0.04848,-0.14524 0.09706,-0.19509 0.04859,-0.04985 0.11646,-0.07477 0.20362,-0.07477l0.52606 0c0.06537,0 0.11531,0.01977 0.14982,0.0593 0.03451,0.03953 0.04981,0.09254 0.04591,0.159 -0.00048,0.00802 -0.00096,0.01633 -0.00147,0.02492 -0.0005,0.00859 -0.00206,0.01747 -0.00468,0.02664l-0.11623 0.57411z"/>
  </g>
  <polygon class="fil3" points="10.0219,4.74343 9.69617,4.74343 9.65733,4.91793 9.98205,4.91793 "/>
  <polygon class="fil4" points="9.57332,4.74343 9.24763,4.74343 9.20879,4.91793 9.53351,4.91793 "/>
  <polygon class="fil5" points="9.11316,4.74343 8.65706,4.74343 8.61759,4.91793 9.06939,4.91793 "/>
  <path class="fil6" d="M8.52498 4.73955l-2.42893 0 0 0c-0.07614,0.00048 -0.18044,0.11143 -0.17705,0.17451l0 0 2.56423 0.00243 0.04175 -0.17694z"/>
  <path class="fil7" d="M5.46965 7.12679l8.97721 0 0.4476 0.00018c0.18072,-0.01654 0.23227,-0.17469 0.2306,-0.17469l-0.03058 0 -9.58134 -0.00341 -0.04349 0.17792z"/>
 </g>
</svg>
